<?xml version="1.0" standalone="no"?>
<!DOCTYPE svg PUBLIC "-//W3C//DTD SVG 20010904//EN"
 "http://www.w3.org/TR/2001/REC-SVG-20010904/DTD/svg10.dtd">
<svg version="1.0" xmlns="http://www.w3.org/2000/svg"
 width="182.000000pt" height="182.000000pt" viewBox="0 0 182.000000 182.000000"
 preserveAspectRatio="xMidYMid meet">
<metadata>
Created by potrace 1.14, written by Peter Selinger 2001-2017
</metadata>
<g transform="translate(0.000000,182.000000) scale(0.100000,-0.100000)"
fill="#000000" stroke="none">
<path d="M737 1384 c-2 -2 -21 -6 -43 -9 -118 -18 -245 -60 -374 -125 -59 -30
-92 -40 -127 -40 -63 0 -124 -31 -159 -82 -29 -41 -29 -44 -31 -192 -1 -163 7
-209 49 -253 33 -36 75 -55 124 -57 24 0 44 -4 44 -7 0 -10 214 -108 294 -134
110 -36 244 -57 371 -58 223 -3 384 35 604 140 115 56 129 61 166 62 31 1 100
49 119 83 25 41 28 67 29 219 1 154 -10 189 -75 242 -30 24 -49 30 -105 35
-53 4 -87 14 -153 47 -197 98 -358 135 -583 133 -80 0 -148 -2 -150 -4z m-529
-465 c3 -245 3 -242 -51 -232 -37 7 -75 48 -88 96 -6 22 -9 96 -7 168 3 120 4
129 28 154 30 33 56 45 90 42 l25 -2 3 -226z m1467 219 c14 -6 35 -28 48 -47
20 -33 22 -47 20 -173 -1 -100 -6 -144 -17 -166 -24 -47 -87 -79 -120 -60 -14
8 -16 35 -16 227 0 120 3 221 7 224 10 11 49 8 78 -5z m-571 -12 c43 -4 110
-11 150 -17 39 -6 81 -12 93 -14 46 -7 83 -17 83 -23 -1 -29 -18 -30 -125 -12
-276 48 -592 45 -865 -9 -48 -10 -60 -7 -60 13 0 15 60 33 141 41 30 4 59 8
66 10 6 2 54 7 105 11 51 3 94 7 95 8 5 4 242 -2 317 -8z m321 -218 c4 -4 5
-13 3 -20 -4 -10 -108 -13 -521 -12 -284 0 -519 3 -523 7 -4 3 -4 12 -1 19 4
11 105 13 520 13 283 0 519 -3 522 -7z m-937 -152 c175 -36 645 -43 785 -11
22 5 46 9 121 21 33 6 38 5 34 -12 -4 -22 -59 -36 -228 -58 -108 -13 -512 -15
-580 -2 -14 2 -45 7 -70 11 -121 17 -165 30 -168 49 -4 17 0 18 39 13 24 -4
54 -9 67 -11z"/>
</g>
</svg>
